<svg width="47" height="48" viewBox="0 0 47 48" fill="none" xmlns="http://www.w3.org/2000/svg">
<path d="M0 6.75136C0 5.2391 0.529294 3.99152 1.58784 3.0086C2.64638 2.02564 4.02254 1.53418 5.71622 1.53418C7.37968 1.53418 8.72553 2.01806 9.75386 2.98592C10.8124 3.98399 11.3417 5.28447 11.3417 6.88746C11.3417 8.3392 10.8276 9.54895 9.79923 10.5168C8.74068 11.5149 7.34942 12.0139 5.62548 12.0139H5.58012C3.91665 12.0139 2.5708 11.5149 1.54247 10.5168C0.514142 9.51874 0 8.26357 0 6.75136ZM0.589768 46.4473V16.1423H10.6612V46.4473H0.589768ZM16.2413 46.4473H26.3127V29.5255C26.3127 28.4669 26.4337 27.6503 26.6757 27.0757C27.0991 26.0474 27.7418 25.1778 28.6038 24.4671C29.4657 23.7563 30.547 23.401 31.8475 23.401C35.2349 23.401 36.9286 25.6844 36.9286 30.2514V46.4473H47V29.0718C47 24.5956 45.9415 21.2007 43.8243 18.887C41.7072 16.5733 38.9096 15.4164 35.4315 15.4164C31.5299 15.4164 28.4903 17.095 26.3127 20.4521V20.5429H26.2674L26.3127 20.4521V16.1423H16.2413C16.3018 17.1101 16.332 20.1194 16.332 25.1703C16.332 30.2211 16.3018 37.3134 16.2413 46.4473Z" fill="#0A66C2"/>
</svg>
