<svg width="47" height="47" viewBox="0 0 47 47" fill="none" xmlns="http://www.w3.org/2000/svg">
<path d="M0 6.26992C0 4.75766 0.529294 3.51007 1.58784 2.52716C2.64638 1.54419 4.02254 1.05273 5.71622 1.05273C7.37968 1.05273 8.72553 1.53662 9.75386 2.50447C10.8124 3.50254 11.3417 4.80303 11.3417 6.40602C11.3417 7.85775 10.8276 9.0675 9.79923 10.0354C8.74068 11.0334 7.34942 11.5325 5.62548 11.5325H5.58012C3.91665 11.5325 2.5708 11.0334 1.54247 10.0354C0.514142 9.03729 0 7.78213 0 6.26992ZM0.589768 45.9659V15.6608H10.6612V45.9659H0.589768ZM16.2413 45.9659H26.3127V29.044C26.3127 27.9855 26.4337 27.1689 26.6757 26.5942C27.0991 25.5659 27.7418 24.6964 28.6038 23.9856C29.4657 23.2749 30.547 22.9195 31.8475 22.9195C35.2349 22.9195 36.9286 25.203 36.9286 29.7699V45.9659H47V28.5904C47 24.1142 45.9415 20.7192 43.8243 18.4055C41.7072 16.0918 38.9096 14.935 35.4315 14.935C31.5299 14.935 28.4903 16.6135 26.3127 19.9707V20.0614H26.2674L26.3127 19.9707V15.6608H16.2413C16.3018 16.6287 16.332 19.638 16.332 24.6888C16.332 29.7397 16.3018 36.832 16.2413 45.9659Z" fill="#0A66C2"/>
</svg>
