<svg width="48" height="48" viewBox="0 0 48 48" fill="none" xmlns="http://www.w3.org/2000/svg">
<g clip-path="url(#clip0_92_1986)">
<path d="M0.214355 7.01064C0.214355 5.49838 0.74365 4.25079 1.80219 3.26788C2.86074 2.28492 4.23689 1.79346 5.93057 1.79346C7.59404 1.79346 8.93989 2.27734 9.96822 3.24519C11.0268 4.24326 11.5561 5.54375 11.5561 7.14674C11.5561 8.59848 11.0419 9.80823 10.0136 10.7761C8.95504 11.7742 7.56378 12.2732 5.83984 12.2732H5.79447C4.13101 12.2732 2.78516 11.7742 1.75683 10.7761C0.728497 9.77801 0.214355 8.52285 0.214355 7.01064ZM0.804124 46.7066V16.4016H10.8756V46.7066H0.804124ZM16.4557 46.7066H26.5271V29.7848C26.5271 28.7262 26.6481 27.9096 26.89 27.335C27.3134 26.3066 27.9561 25.4371 28.8181 24.7264C29.6801 24.0156 30.7613 23.6603 32.0618 23.6603C35.4492 23.6603 37.1429 25.9437 37.1429 30.5106V46.7066H47.2144V29.3311C47.2144 24.8549 46.1558 21.46 44.0387 19.1463C41.9215 16.8325 39.124 15.6757 35.6458 15.6757C31.7443 15.6757 28.7047 17.3543 26.5271 20.7114V20.8021H26.4817L26.5271 20.7114V16.4016H16.4557C16.5161 17.3694 16.5464 20.3787 16.5464 25.4296C16.5464 30.4804 16.5161 37.5727 16.4557 46.7066Z" fill="#0A66C2"/>
</g>
<defs>
<clipPath id="clip0_92_1986">
<rect width="47" height="47" fill="white" transform="translate(0.214355 0.740723)"/>
</clipPath>
</defs>
</svg>
