<svg width="47" height="47" viewBox="0 0 47 47" fill="none" xmlns="http://www.w3.org/2000/svg">
<path d="M26.5108 23.9459C26.5108 31.3302 20.5761 37.3163 13.2556 37.3163C5.93518 37.3163 0 31.3288 0 23.9459C0 16.5629 5.93473 10.575 13.2556 10.575C20.5765 10.575 26.5108 16.5615 26.5108 23.9459Z" fill="black"/>
<path d="M41.052 23.9458C41.052 30.8966 38.0847 36.5335 34.4242 36.5335C30.7638 36.5335 27.7964 30.8966 27.7964 23.9458C27.7964 16.9951 30.7633 11.3582 34.4238 11.3582C38.0842 11.3582 41.0516 16.9933 41.0516 23.9458" fill="black"/>
<path d="M47 23.9458C47 30.1719 45.9565 35.2223 44.6689 35.2223C43.3814 35.2223 42.3384 30.1733 42.3384 23.9458C42.3384 17.7182 43.3818 12.6692 44.6689 12.6692C45.9561 12.6692 47 17.7178 47 23.9458Z" fill="black"/>
</svg>
