<svg width="48" height="48" viewBox="0 0 48 48" fill="none" xmlns="http://www.w3.org/2000/svg">
<g clip-path="url(#clip0_92_1982)">
<path d="M26.7252 24.6868C26.7252 32.0711 20.7904 38.0573 13.47 38.0573C6.14953 38.0573 0.214355 32.0698 0.214355 24.6868C0.214355 17.3039 6.14908 11.3159 13.47 11.3159C20.7909 11.3159 26.7252 17.3025 26.7252 24.6868Z" fill="black"/>
<path d="M41.2664 24.6868C41.2664 31.6375 38.299 37.2745 34.6386 37.2745C30.9781 37.2745 28.0107 31.6375 28.0107 24.6868C28.0107 17.7361 30.9777 12.0991 34.6381 12.0991C38.2986 12.0991 41.2659 17.7343 41.2659 24.6868" fill="black"/>
<path d="M47.2143 24.6867C47.2143 30.9129 46.1709 35.9633 44.8833 35.9633C43.5957 35.9633 42.5527 30.9142 42.5527 24.6867C42.5527 18.4592 43.5962 13.4102 44.8833 13.4102C46.1704 13.4102 47.2143 18.4588 47.2143 24.6867Z" fill="black"/>
</g>
<defs>
<clipPath id="clip0_92_1982">
<rect x="0.214355" y="0.740723" width="47" height="47" rx="6" fill="white"/>
</clipPath>
</defs>
</svg>
