<svg width="25" height="25" viewBox="0 0 25 25" fill="none" xmlns="http://www.w3.org/2000/svg">
<path d="M21.4682 3.36362H2.53481C2.16592 3.36362 1.81213 3.51017 1.55129 3.77101C1.29044 4.03186 1.1439 4.38564 1.1439 4.75454V20.2455C1.1439 20.6144 1.29044 20.9682 1.55129 21.229C1.81213 21.4899 2.16592 21.6364 2.53481 21.6364H21.4682C21.8371 21.6364 22.1909 21.4899 22.4518 21.229C22.7126 20.9682 22.8592 20.6144 22.8592 20.2455V4.75454C22.8592 4.38564 22.7126 4.03186 22.4518 3.77101C22.1909 3.51017 21.8371 3.36362 21.4682 3.36362ZM21.7985 20.2455C21.7985 20.3331 21.7637 20.4171 21.7018 20.4791C21.6399 20.541 21.5558 20.5758 21.4682 20.5758H2.53481C2.44721 20.5758 2.36319 20.541 2.30125 20.4791C2.23931 20.4171 2.20451 20.3331 2.20451 20.2455V4.75454C2.20451 4.66694 2.23931 4.58292 2.30125 4.52098C2.3632 4.45903 2.44721 4.42423 2.53481 4.42423H21.4682C21.5558 4.42423 21.6399 4.45903 21.7018 4.52098C21.7637 4.58292 21.7985 4.66694 21.7985 4.75454V20.2455Z" fill="#313131" stroke="#313131" stroke-width="0.2"/>
<path d="M17.8894 18.5379H18.0394V18.3879V16.4253C18.0394 15.5737 17.3056 14.8493 16.2283 14.3465C15.1388 13.8381 13.6443 13.5277 12.0016 13.5277C10.3589 13.5277 8.86436 13.8381 7.77488 14.3465C6.69758 14.8493 5.96377 15.5737 5.96377 16.4253V18.3879V18.5379H6.11377H17.8894ZM12.0016 14.6127C13.3971 14.6127 14.6537 14.8307 15.556 15.1778C16.0076 15.3515 16.3628 15.5547 16.6025 15.7726C16.8421 15.9905 16.9544 16.2113 16.9544 16.4253V17.4529H7.04881V16.4253C7.04881 16.2113 7.16107 15.9905 7.40071 15.7726C7.64039 15.5547 7.99557 15.3515 8.44719 15.1778C9.34944 14.8307 10.606 14.6127 12.0016 14.6127ZM14.0505 7.31101C13.5071 6.76759 12.7701 6.4623 12.0016 6.4623C11.2331 6.4623 10.4961 6.76759 9.95264 7.31101C9.40923 7.85442 9.10394 8.59145 9.10394 9.35995C9.10394 10.1285 9.40923 10.8655 9.95264 11.4089C10.4961 11.9523 11.2331 12.2576 12.0016 12.2576C12.7701 12.2576 13.5071 11.9523 14.0505 11.4089C14.5939 10.8655 14.8992 10.1285 14.8992 9.35995C14.8992 8.59145 14.5939 7.85442 14.0505 7.31101ZM10.7199 8.07825C11.0598 7.73832 11.5209 7.54735 12.0016 7.54735C12.4823 7.54735 12.9434 7.73832 13.2833 8.07825C13.6232 8.41818 13.8142 8.87922 13.8142 9.35995C13.8142 9.84069 13.6232 10.3017 13.2833 10.6417C12.9434 10.9816 12.4823 11.1726 12.0016 11.1726C11.5209 11.1726 11.0598 10.9816 10.7199 10.6417C10.38 10.3017 10.189 9.84069 10.189 9.35995C10.189 8.87922 10.38 8.41818 10.7199 8.07825Z" fill="#313131" stroke="#313131" stroke-width="0.3"/>
</svg>
