<svg width="25" height="25" viewBox="0 0 25 25" fill="none" xmlns="http://www.w3.org/2000/svg">
<path d="M21.4685 3.36387H2.53506C2.16616 3.36387 1.81238 3.51041 1.55153 3.77126C1.29068 4.0321 1.14414 4.38589 1.14414 4.75478V20.2458C1.14414 20.6147 1.29068 20.9684 1.55153 21.2293C1.81238 21.4901 2.16616 21.6367 2.53506 21.6367H21.4685C21.8374 21.6367 22.1912 21.4901 22.452 21.2293C22.7129 20.9684 22.8594 20.6147 22.8594 20.2458V4.75478C22.8594 4.38589 22.7129 4.0321 22.452 3.77126C22.1912 3.51041 21.8374 3.36387 21.4685 3.36387ZM21.7988 20.2458C21.7988 20.3334 21.764 20.4174 21.702 20.4793C21.6401 20.5413 21.5561 20.5761 21.4685 20.5761H2.53506C2.44745 20.5761 2.36344 20.5413 2.3015 20.4793C2.23955 20.4174 2.20475 20.3334 2.20475 20.2458V4.75478C2.20475 4.66718 2.23955 4.58317 2.3015 4.52122C2.36344 4.45928 2.44745 4.42448 2.53506 4.42448H21.4685C21.5561 4.42448 21.6401 4.45928 21.702 4.52122C21.764 4.58317 21.7988 4.66718 21.7988 4.75478V20.2458Z" fill="#313131" stroke="#313131" stroke-width="0.2"/>
<path d="M17.8899 18.5379H18.0399V18.3879V16.4253C18.0399 15.5737 17.3061 14.8493 16.2288 14.3465C15.1393 13.8381 13.6448 13.5277 12.0021 13.5277C10.3594 13.5277 8.86485 13.8381 7.77537 14.3465C6.69807 14.8493 5.96426 15.5737 5.96426 16.4253V18.3879V18.5379H6.11426H17.8899ZM12.0021 14.6127C13.3976 14.6127 14.6542 14.8307 15.5565 15.1778C16.0081 15.3515 16.3633 15.5547 16.603 15.7726C16.8426 15.9905 16.9549 16.2113 16.9549 16.4253V17.4529H7.0493V16.4253C7.0493 16.2113 7.16155 15.9905 7.4012 15.7726C7.64087 15.5547 7.99606 15.3515 8.44768 15.1778C9.34992 14.8307 10.6065 14.6127 12.0021 14.6127ZM14.051 7.31101C13.5076 6.76759 12.7706 6.4623 12.0021 6.4623C11.2336 6.4623 10.4965 6.76759 9.95313 7.31101C9.40971 7.85442 9.10443 8.59145 9.10443 9.35995C9.10443 10.1285 9.40971 10.8655 9.95313 11.4089C10.4965 11.9523 11.2336 12.2576 12.0021 12.2576C12.7706 12.2576 13.5076 11.9523 14.051 11.4089C14.5944 10.8655 14.8997 10.1285 14.8997 9.35995C14.8997 8.59145 14.5944 7.85442 14.051 7.31101ZM10.7204 8.07825C11.0603 7.73832 11.5213 7.54735 12.0021 7.54735C12.4828 7.54735 12.9439 7.73832 13.2838 8.07825C13.6237 8.41818 13.8147 8.87922 13.8147 9.35995C13.8147 9.84069 13.6237 10.3017 13.2838 10.6417C12.9439 10.9816 12.4828 11.1726 12.0021 11.1726C11.5213 11.1726 11.0603 10.9816 10.7204 10.6417C10.3804 10.3017 10.1895 9.84069 10.1895 9.35995C10.1895 8.87922 10.3804 8.41818 10.7204 8.07825Z" fill="#313131" stroke="#313131" stroke-width="0.3"/>
</svg>
