<svg width="25" height="25" viewBox="0 0 25 25" fill="none" xmlns="http://www.w3.org/2000/svg">
<path d="M22.4653 3.36362H3.53188C3.16299 3.36362 2.8092 3.51017 2.54836 3.77101C2.28751 4.03186 2.14097 4.38564 2.14097 4.75454V20.2455C2.14097 20.6144 2.28751 20.9682 2.54836 21.229C2.8092 21.4899 3.16299 21.6364 3.53188 21.6364H22.4653C22.8342 21.6364 23.188 21.4899 23.4488 21.229C23.7097 20.9682 23.8562 20.6144 23.8562 20.2455V4.75454C23.8562 4.38564 23.7097 4.03186 23.4488 3.77101C23.188 3.51017 22.8342 3.36362 22.4653 3.36362ZM22.7956 20.2455C22.7956 20.3331 22.7608 20.4171 22.6989 20.4791C22.6369 20.541 22.5529 20.5758 22.4653 20.5758H3.53188C3.44428 20.5758 3.36026 20.541 3.29832 20.4791C3.23638 20.4171 3.20158 20.3331 3.20158 20.2455V4.75454C3.20158 4.66694 3.23638 4.58292 3.29832 4.52098C3.36027 4.45903 3.44428 4.42423 3.53188 4.42423H22.4653C22.5529 4.42423 22.6369 4.45903 22.6989 4.52098C22.7608 4.58292 22.7956 4.66694 22.7956 4.75454V20.2455Z" fill="#313131" stroke="#313131" stroke-width="0.2"/>
<path d="M18.8866 18.5378H19.0366V18.3878V16.4252C19.0366 15.5736 18.3028 14.8491 17.2255 14.3464C16.136 13.838 14.6415 13.5276 12.9988 13.5276C11.3561 13.5276 9.86155 13.838 8.77207 14.3464C7.69477 14.8491 6.96096 15.5736 6.96096 16.4252V18.3878V18.5378H7.11096H18.8866ZM12.9988 14.6126C14.3943 14.6126 15.6509 14.8306 16.5532 15.1776C17.0048 15.3514 17.36 15.5546 17.5997 15.7725C17.8393 15.9904 17.9516 16.2112 17.9516 16.4252V17.4528H8.046V16.4252C8.046 16.2112 8.15826 15.9904 8.3979 15.7725C8.63758 15.5546 8.99276 15.3514 9.44439 15.1776C10.3466 14.8306 11.6032 14.6126 12.9988 14.6126ZM15.0477 7.31088C14.5043 6.76747 13.7673 6.46218 12.9988 6.46218C12.2303 6.46218 11.4932 6.76747 10.9498 7.31088C10.4064 7.8543 10.1011 8.59133 10.1011 9.35983C10.1011 10.1283 10.4064 10.8654 10.9498 11.4088C11.4932 11.9522 12.2303 12.2575 12.9988 12.2575C13.7673 12.2575 14.5043 11.9522 15.0477 11.4088C15.5911 10.8654 15.8964 10.1283 15.8964 9.35983C15.8964 8.59133 15.5911 7.8543 15.0477 7.31088ZM11.7171 8.07812C12.057 7.7382 12.518 7.54722 12.9988 7.54722C13.4795 7.54722 13.9406 7.7382 14.2805 8.07812C14.6204 8.41805 14.8114 8.8791 14.8114 9.35983C14.8114 9.84056 14.6204 10.3016 14.2805 10.6415C13.9406 10.9815 13.4795 11.1724 12.9988 11.1724C12.518 11.1724 12.057 10.9815 11.7171 10.6415C11.3771 10.3016 11.1862 9.84056 11.1862 9.35983C11.1862 8.8791 11.3771 8.41805 11.7171 8.07812Z" fill="#313131" stroke="#313131" stroke-width="0.3"/>
</svg>
