<svg width="25" height="25" viewBox="0 0 25 25" fill="none" xmlns="http://www.w3.org/2000/svg">
<path d="M20.1041 5.55566H3.90102C3.59406 5.55566 3.29968 5.6776 3.08264 5.89465C2.86559 6.1117 2.74365 6.40608 2.74365 6.71303V18.2867C2.74365 18.5936 2.86559 18.888 3.08264 19.105C3.29968 19.3221 3.59406 19.444 3.90102 19.444H20.1041C20.4111 19.444 20.7054 19.3221 20.9225 19.105C21.1395 18.888 21.2615 18.5936 21.2615 18.2867V6.71303C21.2615 6.40608 21.1395 6.1117 20.9225 5.89465C20.7054 5.6776 20.4111 5.55566 20.1041 5.55566V5.55566ZM19.2129 18.2867H4.86163L8.9124 14.097L8.0791 13.2926L3.90102 17.6154V7.59262L11.094 14.7509C11.3109 14.9665 11.6042 15.0875 11.91 15.0875C12.2157 15.0875 12.5091 14.9665 12.7259 14.7509L20.1041 7.41323V17.5402L15.845 13.2811L15.0291 14.097L19.2129 18.2867ZM4.65909 6.71303H19.1666L11.91 13.9292L4.65909 6.71303Z" fill="#313131"/>
</svg>
