<svg width="24" height="25" viewBox="0 0 24 25" fill="none" xmlns="http://www.w3.org/2000/svg">
<path d="M20.1012 5.55582H3.89809C3.59113 5.55582 3.29675 5.67775 3.07971 5.8948C2.86266 6.11185 2.74072 6.40623 2.74072 6.71318V18.2868C2.74072 18.5938 2.86266 18.8882 3.07971 19.1052C3.29675 19.3222 3.59113 19.4442 3.89809 19.4442H20.1012C20.4081 19.4442 20.7025 19.3222 20.9196 19.1052C21.1366 18.8882 21.2585 18.5938 21.2585 18.2868V6.71318C21.2585 6.40623 21.1366 6.11185 20.9196 5.8948C20.7025 5.67775 20.4081 5.55582 20.1012 5.55582V5.55582ZM19.21 18.2868H4.8587L8.90947 14.0972L8.07617 13.2928L3.89809 17.6155V7.59278L11.0911 14.7511C11.3079 14.9666 11.6013 15.0876 11.907 15.0876C12.2128 15.0876 12.5061 14.9666 12.723 14.7511L20.1012 7.41339V17.5403L15.8421 13.2812L15.0261 14.0972L19.21 18.2868ZM4.65616 6.71318H19.1637L11.907 13.9293L4.65616 6.71318Z" fill="#313131"/>
</svg>
