<svg width="25" height="25" viewBox="0 0 25 25" fill="none" xmlns="http://www.w3.org/2000/svg">
<path d="M10.532 4.65201H5.07962V19.9188H10.532V4.65201ZM20.3464 4.65201H14.894V10.1044H20.3464V4.65201ZM20.3464 14.4664V19.9188H14.894V14.4664H20.3464ZM3.98914 4.65201C3.98914 4.36279 4.10403 4.08542 4.30853 3.88092C4.51304 3.67641 4.79041 3.56152 5.07962 3.56152H10.532C10.8213 3.56152 11.0986 3.67641 11.3031 3.88092C11.5076 4.08542 11.6225 4.36279 11.6225 4.65201V19.9188C11.6225 20.208 11.5076 20.4854 11.3031 20.6899C11.0986 20.8944 10.8213 21.0093 10.532 21.0093H5.07962C4.79041 21.0093 4.51304 20.8944 4.30853 20.6899C4.10403 20.4854 3.98914 20.208 3.98914 19.9188V4.65201ZM13.8035 4.65201C13.8035 4.36279 13.9184 4.08542 14.1229 3.88092C14.3274 3.67641 14.6048 3.56152 14.894 3.56152H20.3464C20.6356 3.56152 20.913 3.67641 21.1175 3.88092C21.322 4.08542 21.4369 4.36279 21.4369 4.65201V10.1044C21.4369 10.3936 21.322 10.671 21.1175 10.8755C20.913 11.08 20.6356 11.1949 20.3464 11.1949H14.894C14.6048 11.1949 14.3274 11.08 14.1229 10.8755C13.9184 10.671 13.8035 10.3936 13.8035 10.1044V4.65201ZM14.894 13.3759C14.6048 13.3759 14.3274 13.4908 14.1229 13.6953C13.9184 13.8998 13.8035 14.1772 13.8035 14.4664V19.9188C13.8035 20.208 13.9184 20.4854 14.1229 20.6899C14.3274 20.8944 14.6048 21.0093 14.894 21.0093H20.3464C20.6356 21.0093 20.913 20.8944 21.1175 20.6899C21.322 20.4854 21.4369 20.208 21.4369 19.9188V14.4664C21.4369 14.1772 21.322 13.8998 21.1175 13.6953C20.913 13.4908 20.6356 13.3759 20.3464 13.3759H14.894Z" fill="#313131"/>
</svg>
