<svg width="25" height="25" viewBox="0 0 25 25" fill="none" xmlns="http://www.w3.org/2000/svg">
<path d="M21.4675 3.36387H2.53408C2.16519 3.36387 1.8114 3.51041 1.55055 3.77126C1.28971 4.0321 1.14316 4.38589 1.14316 4.75478V20.2458C1.14316 20.6147 1.28971 20.9684 1.55055 21.2293C1.8114 21.4901 2.16519 21.6367 2.53408 21.6367H21.4675C21.8364 21.6367 22.1902 21.4901 22.451 21.2293C22.7119 20.9684 22.8584 20.6147 22.8584 20.2458V4.75478C22.8584 4.38589 22.7119 4.0321 22.451 3.77126C22.1902 3.51041 21.8364 3.36387 21.4675 3.36387ZM21.7978 20.2458C21.7978 20.3334 21.763 20.4174 21.7011 20.4793C21.6391 20.5413 21.5551 20.5761 21.4675 20.5761H2.53408C2.44648 20.5761 2.36246 20.5413 2.30052 20.4793C2.23857 20.4174 2.20377 20.3334 2.20377 20.2458V4.75478C2.20377 4.66718 2.23857 4.58317 2.30052 4.52122C2.36246 4.45928 2.44648 4.42448 2.53408 4.42448H21.4675C21.5551 4.42448 21.6391 4.45928 21.7011 4.52122C21.763 4.58317 21.7978 4.66718 21.7978 4.75478V20.2458Z" fill="#313131" stroke="#313131" stroke-width="0.2"/>
<path d="M17.8889 18.5379H18.0389V18.3879V16.4253C18.0389 15.5737 17.3051 14.8493 16.2278 14.3465C15.1383 13.8381 13.6438 13.5277 12.0011 13.5277C10.3584 13.5277 8.86387 13.8381 7.77439 14.3465C6.69709 14.8493 5.96328 15.5737 5.96328 16.4253V18.3879V18.5379H6.11328H17.8889ZM12.0011 14.6127C13.3966 14.6127 14.6533 14.8307 15.5555 15.1778C16.0071 15.3515 16.3623 15.5547 16.602 15.7726C16.8416 15.9905 16.9539 16.2113 16.9539 16.4253V17.4529H7.04832V16.4253C7.04832 16.2113 7.16058 15.9905 7.40022 15.7726C7.6399 15.5547 7.99508 15.3515 8.4467 15.1778C9.34895 14.8307 10.6056 14.6127 12.0011 14.6127ZM14.05 7.31101C13.5066 6.76759 12.7696 6.4623 12.0011 6.4623C11.2326 6.4623 10.4956 6.76759 9.95215 7.31101C9.40874 7.85442 9.10345 8.59145 9.10345 9.35995C9.10345 10.1285 9.40874 10.8655 9.95215 11.4089C10.4956 11.9523 11.2326 12.2576 12.0011 12.2576C12.7696 12.2576 13.5066 11.9523 14.05 11.4089C14.5935 10.8655 14.8987 10.1285 14.8987 9.35995C14.8987 8.59145 14.5935 7.85442 14.05 7.31101ZM10.7194 8.07825C11.0593 7.73832 11.5204 7.54735 12.0011 7.54735C12.4818 7.54735 12.9429 7.73832 13.2828 8.07825C13.6227 8.41818 13.8137 8.87922 13.8137 9.35995C13.8137 9.84069 13.6227 10.3017 13.2828 10.6417C12.9429 10.9816 12.4818 11.1726 12.0011 11.1726C11.5204 11.1726 11.0593 10.9816 10.7194 10.6417C10.3795 10.3017 10.1885 9.84069 10.1885 9.35995C10.1885 8.87922 10.3795 8.41818 10.7194 8.07825Z" fill="#313131" stroke="#313131" stroke-width="0.3"/>
</svg>
