<svg width="25" height="25" viewBox="0 0 25 25" fill="none" xmlns="http://www.w3.org/2000/svg">
<path d="M21.4682 3.36387H2.53481C2.16592 3.36387 1.81213 3.51041 1.55129 3.77126C1.29044 4.0321 1.1439 4.38589 1.1439 4.75478V20.2458C1.1439 20.6147 1.29044 20.9684 1.55129 21.2293C1.81213 21.4901 2.16592 21.6367 2.53481 21.6367H21.4682C21.8371 21.6367 22.1909 21.4901 22.4518 21.2293C22.7126 20.9684 22.8592 20.6147 22.8592 20.2458V4.75478C22.8592 4.38589 22.7126 4.0321 22.4518 3.77126C22.1909 3.51041 21.8371 3.36387 21.4682 3.36387ZM21.7985 20.2458C21.7985 20.3334 21.7637 20.4174 21.7018 20.4793C21.6399 20.5413 21.5558 20.5761 21.4682 20.5761H2.53481C2.44721 20.5761 2.36319 20.5413 2.30125 20.4793C2.23931 20.4174 2.20451 20.3334 2.20451 20.2458V4.75478C2.20451 4.66718 2.23931 4.58317 2.30125 4.52122C2.3632 4.45928 2.44721 4.42448 2.53481 4.42448H21.4682C21.5558 4.42448 21.6399 4.45928 21.7018 4.52122C21.7637 4.58317 21.7985 4.66718 21.7985 4.75478V20.2458Z" fill="#313131" stroke="#313131" stroke-width="0.2"/>
<path d="M17.8895 18.5379H18.0395V18.3879V16.4253C18.0395 15.5737 17.3057 14.8493 16.2284 14.3465C15.1389 13.8381 13.6444 13.5277 12.0017 13.5277C10.359 13.5277 8.86448 13.8381 7.775 14.3465C6.6977 14.8493 5.96389 15.5737 5.96389 16.4253V18.3879V18.5379H6.11389H17.8895ZM12.0017 14.6127C13.3973 14.6127 14.6539 14.8307 15.5561 15.1778C16.0077 15.3515 16.3629 15.5547 16.6026 15.7726C16.8422 15.9905 16.9545 16.2113 16.9545 16.4253V17.4529H7.04893V16.4253C7.04893 16.2113 7.16119 15.9905 7.40083 15.7726C7.64051 15.5547 7.99569 15.3515 8.44732 15.1778C9.34956 14.8307 10.6062 14.6127 12.0017 14.6127ZM14.0507 7.31101C13.5072 6.76759 12.7702 6.4623 12.0017 6.4623C11.2332 6.4623 10.4962 6.76759 9.95276 7.31101C9.40935 7.85442 9.10406 8.59145 9.10406 9.35995C9.10406 10.1285 9.40935 10.8655 9.95276 11.4089C10.4962 11.9523 11.2332 12.2576 12.0017 12.2576C12.7702 12.2576 13.5072 11.9523 14.0507 11.4089C14.5941 10.8655 14.8994 10.1285 14.8994 9.35995C14.8994 8.59145 14.5941 7.85442 14.0507 7.31101ZM10.72 8.07825C11.0599 7.73832 11.521 7.54735 12.0017 7.54735C12.4824 7.54735 12.9435 7.73832 13.2834 8.07825C13.6233 8.41818 13.8143 8.87922 13.8143 9.35995C13.8143 9.84069 13.6233 10.3017 13.2834 10.6417C12.9435 10.9816 12.4824 11.1726 12.0017 11.1726C11.521 11.1726 11.0599 10.9816 10.72 10.6417C10.3801 10.3017 10.1891 9.84069 10.1891 9.35995C10.1891 8.87922 10.3801 8.41818 10.72 8.07825Z" fill="#313131" stroke="#313131" stroke-width="0.3"/>
</svg>
