<svg width="25" height="25" viewBox="0 0 25 25" fill="none" xmlns="http://www.w3.org/2000/svg">
<path d="M22.4646 3.36362H3.53115C3.16226 3.36362 2.80847 3.51017 2.54762 3.77101C2.28678 4.03186 2.14023 4.38564 2.14023 4.75454V20.2455C2.14023 20.6144 2.28678 20.9682 2.54762 21.229C2.80847 21.4899 3.16226 21.6364 3.53115 21.6364H22.4646C22.8335 21.6364 23.1873 21.4899 23.4481 21.229C23.7089 20.9682 23.8555 20.6144 23.8555 20.2455V4.75454C23.8555 4.38564 23.7089 4.03186 23.4481 3.77101C23.1873 3.51017 22.8335 3.36362 22.4646 3.36362ZM22.7949 20.2455C22.7949 20.3331 22.7601 20.4171 22.6981 20.4791C22.6362 20.541 22.5522 20.5758 22.4646 20.5758H3.53115C3.44355 20.5758 3.35953 20.541 3.29759 20.4791C3.23564 20.4171 3.20084 20.3331 3.20084 20.2455V4.75454C3.20084 4.66694 3.23564 4.58292 3.29759 4.52098C3.35953 4.45903 3.44355 4.42423 3.53115 4.42423H22.4646C22.5522 4.42423 22.6362 4.45903 22.6981 4.52098C22.7601 4.58292 22.7949 4.66694 22.7949 4.75454V20.2455Z" fill="#313131" stroke="#313131" stroke-width="0.2"/>
<path d="M18.8859 18.5378H19.0359V18.3878V16.4252C19.0359 15.5736 18.3021 14.8491 17.2248 14.3464C16.1353 13.838 14.6407 13.5276 12.998 13.5276C11.3554 13.5276 9.86082 13.838 8.77134 14.3464C7.69404 14.8491 6.96023 15.5736 6.96023 16.4252V18.3878V18.5378H7.11023H18.8859ZM12.998 14.6126C14.3936 14.6126 15.6502 14.8306 16.5524 15.1776C17.0041 15.3514 17.3592 15.5546 17.5989 15.7725C17.8386 15.9904 17.9508 16.2112 17.9508 16.4252V17.4528H8.04527V16.4252C8.04527 16.2112 8.15753 15.9904 8.39717 15.7725C8.63685 15.5546 8.99203 15.3514 9.44365 15.1776C10.3459 14.8306 11.6025 14.6126 12.998 14.6126ZM15.047 7.31088C14.5036 6.76747 13.7666 6.46218 12.998 6.46218C12.2295 6.46218 11.4925 6.76747 10.9491 7.31088C10.4057 7.8543 10.1004 8.59133 10.1004 9.35983C10.1004 10.1283 10.4057 10.8654 10.9491 11.4088C11.4925 11.9522 12.2295 12.2575 12.998 12.2575C13.7666 12.2575 14.5036 11.9522 15.047 11.4088C15.5904 10.8654 15.8957 10.1283 15.8957 9.35983C15.8957 8.59133 15.5904 7.8543 15.047 7.31088ZM11.7163 8.07812C12.0563 7.7382 12.5173 7.54722 12.998 7.54722C13.4788 7.54722 13.9398 7.7382 14.2798 8.07812C14.6197 8.41805 14.8107 8.8791 14.8107 9.35983C14.8107 9.84056 14.6197 10.3016 14.2798 10.6415C13.9398 10.9815 13.4788 11.1724 12.998 11.1724C12.5173 11.1724 12.0563 10.9815 11.7163 10.6415C11.3764 10.3016 11.1854 9.84056 11.1854 9.35983C11.1854 8.8791 11.3764 8.41805 11.7163 8.07812Z" fill="#313131" stroke="#313131" stroke-width="0.3"/>
</svg>
