<svg width="25" height="25" viewBox="0 0 25 25" fill="none" xmlns="http://www.w3.org/2000/svg">
<path d="M11.589 3.88185C11.9085 3.62553 12.3059 3.48584 12.7155 3.48584C13.1251 3.48584 13.5224 3.62553 13.8419 3.88185L20.0421 8.85642C20.2525 9.02517 20.4222 9.23903 20.5388 9.48219C20.6554 9.72535 20.7159 9.9916 20.7157 10.2613V19.2856C20.7157 19.763 20.5261 20.2208 20.1885 20.5584C19.8509 20.896 19.3931 21.0856 18.9157 21.0856H16.5156C16.0382 21.0856 15.5803 20.896 15.2428 20.5584C14.9052 20.2208 14.7155 19.763 14.7155 19.2856V14.4854C14.7155 14.3263 14.6523 14.1737 14.5398 14.0611C14.4273 13.9486 14.2747 13.8854 14.1155 13.8854H11.3154C11.1563 13.8854 11.0037 13.9486 10.8912 14.0611C10.7786 14.1737 10.7154 14.3263 10.7154 14.4854V19.2856C10.7154 19.763 10.5258 20.2208 10.1882 20.5584C9.85061 20.896 9.39276 21.0856 8.91535 21.0856H6.51527C6.03786 21.0856 5.58001 20.896 5.24244 20.5584C4.90486 20.2208 4.71521 19.763 4.71521 19.2856V10.2613C4.71521 9.71565 4.96322 9.19883 5.38883 8.85722L11.589 3.88265V3.88185ZM13.0907 4.81788C12.9842 4.73258 12.8519 4.68609 12.7155 4.68609C12.5791 4.68609 12.4467 4.73258 12.3403 4.81788L6.14006 9.79245C6.06993 9.84864 6.01332 9.91988 5.97441 10.0009C5.9355 10.0819 5.91528 10.1706 5.91525 10.2605V19.2848C5.91525 19.6168 6.18406 19.8848 6.51527 19.8848H8.91535C9.07449 19.8848 9.2271 19.8216 9.33963 19.709C9.45215 19.5965 9.51537 19.4439 9.51537 19.2848V14.4846C9.51537 14.0072 9.70502 13.5493 10.0426 13.2118C10.3802 12.8742 10.838 12.6845 11.3154 12.6845H14.1155C14.352 12.6845 14.5861 12.7311 14.8046 12.8216C15.023 12.9122 15.2215 13.0448 15.3886 13.2121C15.5558 13.3793 15.6884 13.5778 15.7788 13.7963C15.8692 14.0148 15.9157 14.249 15.9156 14.4854V19.2856C15.9156 19.6176 16.1844 19.8856 16.5156 19.8856H18.9157C19.0748 19.8856 19.2274 19.8224 19.34 19.7098C19.4525 19.5973 19.5157 19.4447 19.5157 19.2856V10.2613C19.5158 10.1715 19.4957 10.0828 19.4569 10.0018C19.4181 9.92079 19.3617 9.84952 19.2917 9.79325L13.0915 4.81868L13.0907 4.81788Z" fill="#313131"/>
</svg>
