<svg width="25" height="25" viewBox="0 0 25 25" fill="none" xmlns="http://www.w3.org/2000/svg">
<path d="M9.82025 4.8483H4.36783V20.1151H9.82025V4.8483ZM19.6346 4.8483H14.1822V10.3007H19.6346V4.8483ZM19.6346 14.6627V20.1151H14.1822V14.6627H19.6346ZM3.27734 4.8483C3.27734 4.55908 3.39223 4.28171 3.59674 4.07721C3.80124 3.8727 4.07861 3.75781 4.36783 3.75781H9.82025C10.1095 3.75781 10.3868 3.8727 10.5913 4.07721C10.7958 4.28171 10.9107 4.55908 10.9107 4.8483V20.1151C10.9107 20.4043 10.7958 20.6817 10.5913 20.8862C10.3868 21.0907 10.1095 21.2056 9.82025 21.2056H4.36783C4.07861 21.2056 3.80124 21.0907 3.59674 20.8862C3.39223 20.6817 3.27734 20.4043 3.27734 20.1151V4.8483ZM13.0917 4.8483C13.0917 4.55908 13.2066 4.28171 13.4111 4.07721C13.6156 3.8727 13.893 3.75781 14.1822 3.75781H19.6346C19.9238 3.75781 20.2012 3.8727 20.4057 4.07721C20.6102 4.28171 20.7251 4.55908 20.7251 4.8483V10.3007C20.7251 10.5899 20.6102 10.8673 20.4057 11.0718C20.2012 11.2763 19.9238 11.3912 19.6346 11.3912H14.1822C13.893 11.3912 13.6156 11.2763 13.4111 11.0718C13.2066 10.8673 13.0917 10.5899 13.0917 10.3007V4.8483ZM14.1822 13.5722C13.893 13.5722 13.6156 13.6871 13.4111 13.8916C13.2066 14.0961 13.0917 14.3734 13.0917 14.6627V20.1151C13.0917 20.4043 13.2066 20.6817 13.4111 20.8862C13.6156 21.0907 13.893 21.2056 14.1822 21.2056H19.6346C19.9238 21.2056 20.2012 21.0907 20.4057 20.8862C20.6102 20.6817 20.7251 20.4043 20.7251 20.1151V14.6627C20.7251 14.3734 20.6102 14.0961 20.4057 13.8916C20.2012 13.6871 19.9238 13.5722 19.6346 13.5722H14.1822Z" fill="#313131"/>
</svg>
