<svg width="25" height="25" viewBox="0 0 25 25" fill="none" xmlns="http://www.w3.org/2000/svg">
<path d="M22.1789 3.14902H3.24551C2.87661 3.14902 2.52283 3.29557 2.26198 3.55641C2.00113 3.81726 1.85459 4.17105 1.85459 4.53994V20.0309C1.85459 20.3998 2.00113 20.7536 2.26198 21.0144C2.52283 21.2753 2.87661 21.4218 3.24551 21.4218H22.1789C22.5478 21.4218 22.9016 21.2753 23.1625 21.0144C23.4233 20.7536 23.5698 20.3998 23.5698 20.0309V4.53994C23.5698 4.17104 23.4233 3.81726 23.1625 3.55641C22.9016 3.29557 22.5478 3.14902 22.1789 3.14902ZM22.5092 20.0309C22.5092 20.1185 22.4744 20.2025 22.4125 20.2645C22.3505 20.3264 22.2665 20.3612 22.1789 20.3612H3.24551C3.1579 20.3612 3.07389 20.3264 3.01194 20.2645C2.95 20.2025 2.9152 20.1185 2.9152 20.0309V4.53994C2.9152 4.45234 2.95 4.36832 3.01194 4.30638C3.07389 4.24443 3.1579 4.20963 3.24551 4.20963H22.1789C22.2665 4.20963 22.3505 4.24443 22.4125 4.30638C22.4744 4.36832 22.5092 4.45234 22.5092 4.53994V20.0309Z" fill="#313131" stroke="#313131" stroke-width="0.2"/>
<path d="M18.6002 18.3236H18.7502V18.1736V16.211C18.7502 15.3593 18.0164 14.6349 16.9391 14.1322C15.8496 13.6238 14.3551 13.3133 12.7124 13.3133C11.0697 13.3133 9.57518 13.6238 8.48569 14.1322C7.4084 14.6349 6.67458 15.3593 6.67458 16.211V18.1736V18.3236H6.82458H18.6002ZM12.7124 14.3984C14.1079 14.3984 15.3646 14.6163 16.2668 14.9634C16.7184 15.1372 17.0736 15.3403 17.3133 15.5583C17.5529 15.7762 17.6652 15.997 17.6652 16.211V17.2385H7.75963V16.211C7.75963 15.997 7.87188 15.7762 8.11152 15.5583C8.3512 15.3403 8.70639 15.1372 9.15801 14.9634C10.0603 14.6163 11.3169 14.3984 12.7124 14.3984ZM14.7613 7.09665C14.2179 6.55324 13.4809 6.24795 12.7124 6.24795C11.9439 6.24795 11.2069 6.55324 10.6635 7.09665C10.12 7.64007 9.81475 8.37709 9.81475 9.1456C9.81475 9.9141 10.12 10.6511 10.6635 11.1945C11.2069 11.738 11.9439 12.0432 12.7124 12.0432C13.4809 12.0432 14.2179 11.738 14.7613 11.1945C15.3048 10.6511 15.6101 9.9141 15.6101 9.1456C15.6101 8.37709 15.3048 7.64007 14.7613 7.09665ZM11.4307 7.86389C11.7706 7.52396 12.2317 7.33299 12.7124 7.33299C13.1931 7.33299 13.6542 7.52396 13.9941 7.86389C14.334 8.20382 14.525 8.66486 14.525 9.1456C14.525 9.62633 14.334 10.0874 13.9941 10.4273C13.6542 10.7672 13.1931 10.9582 12.7124 10.9582C12.2317 10.9582 11.7706 10.7672 11.4307 10.4273C11.0908 10.0874 10.8998 9.62633 10.8998 9.1456C10.8998 8.66486 11.0908 8.20382 11.4307 7.86389Z" fill="#313131" stroke="#313131" stroke-width="0.3"/>
</svg>
