<svg width="25" height="24" viewBox="0 0 25 24" fill="none" xmlns="http://www.w3.org/2000/svg">
<path d="M11.3741 3.59621C11.6936 3.33989 12.0909 3.2002 12.5005 3.2002C12.9101 3.2002 13.3075 3.33989 13.6269 3.59621L19.8272 8.57077C20.0375 8.73952 20.2072 8.95338 20.3238 9.19654C20.4404 9.4397 20.5009 9.70595 20.5008 9.97562V18.9999C20.5008 19.4773 20.3111 19.9352 19.9736 20.2728C19.636 20.6103 19.1781 20.8 18.7007 20.8H16.3006C15.8232 20.8 15.3654 20.6103 15.0278 20.2728C14.6902 19.9352 14.5006 19.4773 14.5006 18.9999V14.1998C14.5006 14.0406 14.4374 13.888 14.3248 13.7755C14.2123 13.663 14.0597 13.5997 13.9006 13.5997H11.1005C10.9413 13.5997 10.7887 13.663 10.6762 13.7755C10.5637 13.888 10.5004 14.0406 10.5004 14.1998V18.9999C10.5004 19.4773 10.3108 19.9352 9.97322 20.2728C9.63564 20.6103 9.17779 20.8 8.70038 20.8H6.3003C5.8229 20.8 5.36505 20.6103 5.02747 20.2728C4.68989 19.9352 4.50024 19.4773 4.50024 18.9999V9.97562C4.50024 9.43 4.74825 8.91318 5.17387 8.57157L11.3741 3.59701V3.59621ZM12.8757 4.53224C12.7693 4.44693 12.6369 4.40045 12.5005 4.40045C12.3641 4.40045 12.2318 4.44693 12.1253 4.53224L5.92509 9.5068C5.85496 9.563 5.79835 9.63423 5.75944 9.71524C5.72053 9.79624 5.70032 9.88495 5.70028 9.97482V18.9991C5.70028 19.3311 5.96909 19.5991 6.3003 19.5991H8.70038C8.85952 19.5991 9.01214 19.5359 9.12466 19.4234C9.23719 19.3109 9.3004 19.1583 9.3004 18.9991V14.199C9.3004 13.7216 9.49005 13.2637 9.82763 12.9261C10.1652 12.5885 10.6231 12.3989 11.1005 12.3989H13.9006C14.137 12.3989 14.3712 12.4455 14.5896 12.536C14.808 12.6265 15.0065 12.7592 15.1737 12.9264C15.3408 13.0936 15.4734 13.2922 15.5638 13.5107C15.6542 13.7291 15.7007 13.9633 15.7006 14.1998V18.9999C15.7006 19.3319 15.9694 19.5999 16.3006 19.5999H18.7007C18.8599 19.5999 19.0125 19.5367 19.125 19.4242C19.2375 19.3117 19.3007 19.1591 19.3007 18.9999V9.97562C19.3008 9.88582 19.2807 9.79715 19.2419 9.71615C19.2032 9.63515 19.1467 9.56388 19.0767 9.5076L12.8765 4.53304L12.8757 4.53224Z" fill="#313131"/>
</svg>
