<svg width="25" height="25" viewBox="0 0 25 25" fill="none" xmlns="http://www.w3.org/2000/svg">
<path d="M10.5338 4.65201H5.08133V19.9188H10.5338V4.65201ZM20.3481 4.65201H14.8957V10.1044H20.3481V4.65201ZM20.3481 14.4664V19.9188H14.8957V14.4664H20.3481ZM3.99084 4.65201C3.99084 4.36279 4.10573 4.08542 4.31024 3.88092C4.51475 3.67641 4.79211 3.56152 5.08133 3.56152H10.5338C10.823 3.56152 11.1003 3.67641 11.3048 3.88092C11.5093 4.08542 11.6242 4.36279 11.6242 4.65201V19.9188C11.6242 20.208 11.5093 20.4854 11.3048 20.6899C11.1003 20.8944 10.823 21.0093 10.5338 21.0093H5.08133C4.79211 21.0093 4.51475 20.8944 4.31024 20.6899C4.10573 20.4854 3.99084 20.208 3.99084 19.9188V4.65201ZM13.8052 4.65201C13.8052 4.36279 13.9201 4.08542 14.1246 3.88092C14.3291 3.67641 14.6065 3.56152 14.8957 3.56152H20.3481C20.6373 3.56152 20.9147 3.67641 21.1192 3.88092C21.3237 4.08542 21.4386 4.36279 21.4386 4.65201V10.1044C21.4386 10.3936 21.3237 10.671 21.1192 10.8755C20.9147 11.08 20.6373 11.1949 20.3481 11.1949H14.8957C14.6065 11.1949 14.3291 11.08 14.1246 10.8755C13.9201 10.671 13.8052 10.3936 13.8052 10.1044V4.65201ZM14.8957 13.3759C14.6065 13.3759 14.3291 13.4908 14.1246 13.6953C13.9201 13.8998 13.8052 14.1772 13.8052 14.4664V19.9188C13.8052 20.208 13.9201 20.4854 14.1246 20.6899C14.3291 20.8944 14.6065 21.0093 14.8957 21.0093H20.3481C20.6373 21.0093 20.9147 20.8944 21.1192 20.6899C21.3237 20.4854 21.4386 20.208 21.4386 19.9188V14.4664C21.4386 14.1772 21.3237 13.8998 21.1192 13.6953C20.9147 13.4908 20.6373 13.3759 20.3481 13.3759H14.8957Z" fill="#313131"/>
</svg>
