<svg width="25" height="25" viewBox="0 0 25 25" fill="none" xmlns="http://www.w3.org/2000/svg">
<path d="M20.1039 5.55591H3.90077C3.59382 5.55591 3.29944 5.67784 3.08239 5.89489C2.86534 6.11194 2.74341 6.40632 2.74341 6.71327V18.2869C2.74341 18.5939 2.86534 18.8882 3.08239 19.1053C3.29944 19.3223 3.59382 19.4443 3.90077 19.4443H20.1039C20.4108 19.4443 20.7052 19.3223 20.9222 19.1053C21.1393 18.8882 21.2612 18.5939 21.2612 18.2869V6.71327C21.2612 6.40632 21.1393 6.11194 20.9222 5.89489C20.7052 5.67784 20.4108 5.55591 20.1039 5.55591V5.55591ZM19.2127 18.2869H4.86138L8.91216 14.0973L8.07886 13.2929L3.90077 17.6156V7.59287L11.0938 14.7512C11.3106 14.9667 11.604 15.0877 11.9097 15.0877C12.2155 15.0877 12.5088 14.9667 12.7257 14.7512L20.1039 7.41348V17.5404L15.8448 13.2813L15.0288 14.0973L19.2127 18.2869ZM4.65885 6.71327H19.1664L11.9097 13.9294L4.65885 6.71327Z" fill="#313131"/>
</svg>
