<svg width="25" height="25" viewBox="0 0 25 25" fill="none" xmlns="http://www.w3.org/2000/svg">
<path d="M20.8179 5.34131H4.61476C4.30781 5.34131 4.01343 5.46324 3.79638 5.68029C3.57933 5.89734 3.4574 6.19172 3.4574 6.49867V18.0723C3.4574 18.3793 3.57933 18.6736 3.79638 18.8907C4.01343 19.1077 4.30781 19.2297 4.61476 19.2297H20.8179C21.1248 19.2297 21.4192 19.1077 21.6362 18.8907C21.8533 18.6736 21.9752 18.3793 21.9752 18.0723V6.49867C21.9752 6.19172 21.8533 5.89734 21.6362 5.68029C21.4192 5.46324 21.1248 5.34131 20.8179 5.34131V5.34131ZM19.9267 18.0723H5.57537L9.62615 13.8827L8.79285 13.0783L4.61476 17.401V7.37827L11.8078 14.5366C12.0246 14.7521 12.318 14.8731 12.6237 14.8731C12.9295 14.8731 13.2228 14.7521 13.4397 14.5366L20.8179 7.19888V17.3258L16.5588 13.0667L15.7428 13.8827L19.9267 18.0723ZM5.37283 6.49867H19.8804L12.6237 13.7148L5.37283 6.49867Z" fill="#313131"/>
</svg>
