<svg width="25" height="25" viewBox="0 0 25 25" fill="none" xmlns="http://www.w3.org/2000/svg">
<path d="M10.5329 4.65201H5.08047V19.9188H10.5329V4.65201ZM20.3473 4.65201H14.8948V10.1044H20.3473V4.65201ZM20.3473 14.4664V19.9188H14.8948V14.4664H20.3473ZM3.98999 4.65201C3.98999 4.36279 4.10488 4.08542 4.30939 3.88092C4.51389 3.67641 4.79126 3.56152 5.08047 3.56152H10.5329C10.8221 3.56152 11.0995 3.67641 11.304 3.88092C11.5085 4.08542 11.6234 4.36279 11.6234 4.65201V19.9188C11.6234 20.208 11.5085 20.4854 11.304 20.6899C11.0995 20.8944 10.8221 21.0093 10.5329 21.0093H5.08047C4.79126 21.0093 4.51389 20.8944 4.30939 20.6899C4.10488 20.4854 3.98999 20.208 3.98999 19.9188V4.65201ZM13.8044 4.65201C13.8044 4.36279 13.9192 4.08542 14.1237 3.88092C14.3283 3.67641 14.6056 3.56152 14.8948 3.56152H20.3473C20.6365 3.56152 20.9138 3.67641 21.1183 3.88092C21.3229 4.08542 21.4377 4.36279 21.4377 4.65201V10.1044C21.4377 10.3936 21.3229 10.671 21.1183 10.8755C20.9138 11.08 20.6365 11.1949 20.3473 11.1949H14.8948C14.6056 11.1949 14.3283 11.08 14.1237 10.8755C13.9192 10.671 13.8044 10.3936 13.8044 10.1044V4.65201ZM14.8948 13.3759C14.6056 13.3759 14.3283 13.4908 14.1237 13.6953C13.9192 13.8998 13.8044 14.1772 13.8044 14.4664V19.9188C13.8044 20.208 13.9192 20.4854 14.1237 20.6899C14.3283 20.8944 14.6056 21.0093 14.8948 21.0093H20.3473C20.6365 21.0093 20.9138 20.8944 21.1183 20.6899C21.3229 20.4854 21.4377 20.208 21.4377 19.9188V14.4664C21.4377 14.1772 21.3229 13.8998 21.1183 13.6953C20.9138 13.4908 20.6365 13.3759 20.3473 13.3759H14.8948Z" fill="#313131"/>
</svg>
