<svg width="47" height="48" viewBox="0 0 47 48" fill="none" xmlns="http://www.w3.org/2000/svg">
<path fill-rule="evenodd" clip-rule="evenodd" d="M23.4918 1.65625C17.9477 1.65913 12.5854 3.62273 8.36374 7.19596C4.14207 10.7692 1.33632 15.719 0.448189 21.1604C-0.439945 26.6017 0.647438 32.1798 3.51593 36.8971C6.38441 41.6145 10.8469 45.1635 16.1056 46.9096C17.2657 47.1249 17.7027 46.4059 17.7027 45.7945C17.7027 45.1831 17.6795 43.4105 17.6717 41.4726C11.175 42.876 9.80215 38.731 9.80215 38.731C8.74256 36.0394 7.21117 35.3319 7.21117 35.3319C5.09199 33.8938 7.36974 33.9207 7.36974 33.9207C9.71709 34.0861 10.9507 36.3163 10.9507 36.3163C13.0312 39.8653 16.4149 38.8387 17.7452 38.2388C17.954 36.7354 18.5612 35.7126 19.2302 35.132C14.0405 34.5475 8.58787 32.5557 8.58787 23.6581C8.55571 21.3505 9.41689 19.119 10.9932 17.4251C10.7535 16.8407 9.95296 14.4798 11.2214 11.2729C11.2214 11.2729 13.182 10.65 17.6447 13.6531C21.4725 12.6122 25.5111 12.6122 29.3389 13.6531C33.7977 10.65 35.7544 11.2729 35.7544 11.2729C37.0267 14.4721 36.2262 16.833 35.9865 17.4251C37.5678 19.1193 38.4308 21.3547 38.3957 23.6658C38.3957 32.5826 32.9314 34.5475 27.734 35.1204C28.5693 35.8433 29.3157 37.2545 29.3157 39.4231C29.3157 42.53 29.2886 45.0293 29.2886 45.7945C29.2886 46.4136 29.7101 47.1364 30.8934 46.9096C36.1527 45.1633 40.6157 41.6136 43.4841 36.8955C46.3525 32.1773 47.4394 26.5984 46.5502 21.1566C45.6611 15.7147 42.8539 10.7648 38.6309 7.19223C34.4078 3.61962 29.0443 1.6573 23.4995 1.65625H23.4918Z" fill="#191717"/>
<path d="M8.98192 34.9975C8.93164 35.1128 8.74602 35.1474 8.59521 35.0667C8.44439 34.9859 8.33225 34.836 8.38639 34.7168C8.44053 34.5976 8.62228 34.5668 8.7731 34.6476C8.92392 34.7283 9.03992 34.8821 8.98192 34.9975Z" fill="#191717"/>
<path d="M9.9292 36.0471C9.84912 36.0872 9.75749 36.0984 9.67002 36.0788C9.58254 36.0591 9.50466 36.0099 9.44968 35.9394C9.29887 35.7779 9.26791 35.5549 9.38393 35.4549C9.49994 35.355 9.70878 35.4011 9.8596 35.5626C10.0104 35.7241 10.0452 35.9471 9.9292 36.0471Z" fill="#191717"/>
<path d="M10.8494 37.3811C10.7063 37.4811 10.4627 37.3811 10.3273 37.1812C10.2899 37.1453 10.2601 37.1023 10.2398 37.0547C10.2195 37.0072 10.209 36.956 10.209 36.9043C10.209 36.8526 10.2195 36.8015 10.2398 36.7539C10.2601 36.7064 10.2899 36.6634 10.3273 36.6275C10.4704 36.5314 10.7141 36.6275 10.8494 36.8236C10.9848 37.0197 10.9886 37.2811 10.8494 37.3811V37.3811Z" fill="#191717"/>
<path d="M12.0986 38.6732C11.971 38.8155 11.7119 38.777 11.4992 38.5848C11.2865 38.3925 11.2362 38.131 11.3638 37.9926C11.4914 37.8542 11.7505 37.8926 11.971 38.081C12.1914 38.2695 12.2339 38.5348 12.0986 38.6732V38.6732Z" fill="#191717"/>
<path d="M13.8504 39.4267C13.7924 39.6074 13.5294 39.6882 13.2665 39.6113C13.0035 39.5344 12.8295 39.319 12.8797 39.1345C12.93 38.9499 13.1969 38.8653 13.4637 38.9499C13.7305 39.0345 13.9007 39.2383 13.8504 39.4267Z" fill="#191717"/>
<path d="M15.7609 39.5577C15.7609 39.7461 15.5443 39.9076 15.2659 39.9114C14.9874 39.9153 14.7593 39.7615 14.7593 39.5731C14.7593 39.3846 14.9758 39.2232 15.2543 39.2193C15.5327 39.2155 15.7609 39.3654 15.7609 39.5577Z" fill="#191717"/>
<path d="M17.5398 39.2615C17.5746 39.45 17.3812 39.6461 17.1028 39.6922C16.8243 39.7383 16.5807 39.6268 16.5459 39.4423C16.5111 39.2577 16.7122 39.0578 16.9829 39.0078C17.2536 38.9578 17.505 39.0731 17.5398 39.2615Z" fill="#191717"/>
</svg>
