<svg width="48" height="48" viewBox="0 0 48 48" fill="none" xmlns="http://www.w3.org/2000/svg">
<g clip-path="url(#clip0_92_1985)">
<path fill-rule="evenodd" clip-rule="evenodd" d="M23.7061 1.91553C18.1621 1.9184 12.7998 3.88201 8.57809 7.45523C4.35642 11.0285 1.55068 15.9783 0.662545 21.4197C-0.225589 26.861 0.861794 32.4391 3.73028 37.1564C6.59877 41.8738 11.0613 45.4228 16.3199 47.1689C17.4801 47.3842 17.917 46.6651 17.917 46.0538C17.917 45.4424 17.8938 43.6698 17.8861 41.7318C11.3893 43.1353 10.0165 38.9903 10.0165 38.9903C8.95692 36.2987 7.42553 35.5912 7.42553 35.5912C5.30635 34.1531 7.5841 34.18 7.5841 34.18C9.93144 34.3454 11.1651 36.5755 11.1651 36.5755C13.2456 40.1246 16.6293 39.0979 17.9596 38.4981C18.1684 36.9947 18.7756 35.9718 19.4446 35.3912C14.2549 34.8068 8.80223 32.815 8.80223 23.9174C8.77006 21.6098 9.63125 19.3783 11.2076 17.6844C10.9678 17.0999 10.1673 14.739 11.4357 11.5322C11.4357 11.5322 13.3964 10.9093 17.8591 13.9123C21.6868 12.8715 25.7254 12.8715 29.5532 13.9123C34.012 10.9093 35.9688 11.5322 35.9688 11.5322C37.2411 14.7313 36.4406 17.0923 36.2008 17.6844C37.7822 19.3785 38.6451 21.614 38.61 23.9251C38.61 32.8419 33.1458 34.8068 27.9484 35.3797C28.7837 36.1026 29.53 37.5137 29.53 39.6824C29.53 42.7893 29.503 45.2886 29.503 46.0538C29.503 46.6728 29.9245 47.3957 31.1078 47.1689C36.3671 45.4226 40.83 41.8729 43.6985 37.1548C46.5669 32.4366 47.6537 26.8577 46.7646 21.4159C45.8754 15.974 43.0683 11.0241 38.8452 7.4515C34.6222 3.87889 29.2586 1.91658 23.7139 1.91553H23.7061Z" fill="#191717"/>
<path d="M9.19627 35.2567C9.146 35.3721 8.96038 35.4067 8.80956 35.326C8.65874 35.2452 8.5466 35.0952 8.60074 34.976C8.65488 34.8568 8.83664 34.8261 8.98746 34.9068C9.13827 34.9876 9.25428 35.1414 9.19627 35.2567Z" fill="#191717"/>
<path d="M10.1436 36.3064C10.0635 36.3465 9.97185 36.3577 9.88437 36.3381C9.7969 36.3184 9.71902 36.2692 9.66404 36.1987C9.51322 36.0372 9.48227 35.8142 9.59828 35.7142C9.7143 35.6143 9.92314 35.6604 10.074 35.8219C10.2248 35.9834 10.2596 36.2064 10.1436 36.3064Z" fill="#191717"/>
<path d="M11.0638 37.6404C10.9207 37.7404 10.677 37.6404 10.5417 37.4405C10.5043 37.4046 10.4745 37.3616 10.4542 37.314C10.4338 37.2664 10.4233 37.2153 10.4233 37.1636C10.4233 37.1119 10.4338 37.0608 10.4542 37.0132C10.4745 36.9656 10.5043 36.9226 10.5417 36.8868C10.6848 36.7906 10.9284 36.8868 11.0638 37.0829C11.1991 37.279 11.203 37.5404 11.0638 37.6404V37.6404Z" fill="#191717"/>
<path d="M12.3129 38.9325C12.1853 39.0747 11.9262 39.0363 11.7135 38.844C11.5009 38.6518 11.4506 38.3903 11.5782 38.2519C11.7058 38.1135 11.9649 38.1519 12.1853 38.3403C12.4057 38.5287 12.4483 38.794 12.3129 38.9325V38.9325Z" fill="#191717"/>
<path d="M14.0648 39.686C14.0067 39.8667 13.7438 39.9474 13.4808 39.8705C13.2178 39.7936 13.0438 39.5783 13.0941 39.3937C13.1444 39.2092 13.4112 39.1246 13.678 39.2092C13.9449 39.2938 14.115 39.4976 14.0648 39.686Z" fill="#191717"/>
<path d="M15.9752 39.817C15.9752 40.0054 15.7587 40.1669 15.4802 40.1707C15.2018 40.1746 14.9736 40.0207 14.9736 39.8323C14.9736 39.6439 15.1902 39.4824 15.4686 39.4786C15.747 39.4747 15.9752 39.6247 15.9752 39.817Z" fill="#191717"/>
<path d="M17.7541 39.5208C17.7889 39.7092 17.5956 39.9053 17.3171 39.9515C17.0387 39.9976 16.7951 39.8861 16.7603 39.7015C16.7255 39.517 16.9266 39.317 17.1973 39.267C17.468 39.2171 17.7193 39.3324 17.7541 39.5208Z" fill="#191717"/>
</g>
<defs>
<clipPath id="clip0_92_1985">
<rect x="0.214355" y="0.740723" width="47" height="47" rx="6" fill="white"/>
</clipPath>
</defs>
</svg>
