<svg width="47" height="47" viewBox="0 0 47 47" fill="none" xmlns="http://www.w3.org/2000/svg">
<path fill-rule="evenodd" clip-rule="evenodd" d="M23.4918 1.17505C17.9477 1.17793 12.5854 3.14153 8.36374 6.71476C4.14207 10.288 1.33632 15.2378 0.448189 20.6792C-0.439945 26.1205 0.647438 31.6986 3.51593 36.4159C6.38441 41.1333 10.8469 44.6823 16.1056 46.4284C17.2657 46.6437 17.7027 45.9247 17.7027 45.3133C17.7027 44.7019 17.6795 42.9293 17.6717 40.9914C11.175 42.3948 9.80215 38.2498 9.80215 38.2498C8.74256 35.5582 7.21117 34.8507 7.21117 34.8507C5.09199 33.4126 7.36974 33.4395 7.36974 33.4395C9.71709 33.6049 10.9507 35.8351 10.9507 35.8351C13.0312 39.3841 16.4149 38.3575 17.7452 37.7576C17.954 36.2542 18.5612 35.2314 19.2302 34.6508C14.0405 34.0663 8.58787 32.0745 8.58787 23.1769C8.55571 20.8693 9.41689 18.6378 10.9932 16.9439C10.7535 16.3595 9.95296 13.9986 11.2214 10.7917C11.2214 10.7917 13.182 10.1688 17.6447 13.1719C21.4725 12.131 25.5111 12.131 29.3389 13.1719C33.7977 10.1688 35.7544 10.7917 35.7544 10.7917C37.0267 13.9909 36.2262 16.3518 35.9865 16.9439C37.5678 18.6381 38.4308 20.8735 38.3957 23.1846C38.3957 32.1014 32.9314 34.0663 27.734 34.6392C28.5693 35.3621 29.3157 36.7733 29.3157 38.9419C29.3157 42.0488 29.2886 44.5481 29.2886 45.3133C29.2886 45.9324 29.7101 46.6552 30.8934 46.4284C36.1527 44.6821 40.6157 41.1324 43.4841 36.4143C46.3525 31.6961 47.4394 26.1172 46.5502 20.6754C45.6611 15.2335 42.8539 10.2836 38.6309 6.71102C34.4078 3.13842 29.0443 1.1761 23.4995 1.17505H23.4918Z" fill="#191717"/>
<path d="M8.98192 34.5163C8.93164 34.6316 8.74602 34.6662 8.59521 34.5855C8.44439 34.5047 8.33225 34.3548 8.38639 34.2356C8.44053 34.1164 8.62228 34.0856 8.7731 34.1664C8.92392 34.2471 9.03992 34.4009 8.98192 34.5163Z" fill="#191717"/>
<path d="M9.9292 35.5659C9.84912 35.606 9.75749 35.6172 9.67002 35.5976C9.58254 35.5779 9.50466 35.5287 9.44968 35.4582C9.29887 35.2967 9.26791 35.0737 9.38393 34.9737C9.49994 34.8738 9.70878 34.9199 9.8596 35.0814C10.0104 35.2429 10.0452 35.4659 9.9292 35.5659Z" fill="#191717"/>
<path d="M10.8494 36.9002C10.7063 37.0001 10.4627 36.9002 10.3273 36.7002C10.2899 36.6644 10.2601 36.6213 10.2398 36.5738C10.2195 36.5262 10.209 36.4751 10.209 36.4234C10.209 36.3717 10.2195 36.3205 10.2398 36.273C10.2601 36.2254 10.2899 36.1824 10.3273 36.1465C10.4704 36.0504 10.7141 36.1465 10.8494 36.3426C10.9848 36.5387 10.9886 36.8002 10.8494 36.9002V36.9002Z" fill="#191717"/>
<path d="M12.0986 38.192C11.971 38.3343 11.7119 38.2958 11.4992 38.1036C11.2865 37.9113 11.2362 37.6498 11.3638 37.5114C11.4914 37.373 11.7505 37.4114 11.971 37.5998C12.1914 37.7883 12.2339 38.0536 12.0986 38.192V38.192Z" fill="#191717"/>
<path d="M13.8504 38.9457C13.7924 39.1265 13.5294 39.2072 13.2665 39.1303C13.0035 39.0534 12.8295 38.8381 12.8797 38.6535C12.93 38.4689 13.1969 38.3843 13.4637 38.4689C13.7305 38.5535 13.9007 38.7573 13.8504 38.9457Z" fill="#191717"/>
<path d="M15.7609 39.0765C15.7609 39.2649 15.5443 39.4264 15.2659 39.4302C14.9874 39.4341 14.7593 39.2803 14.7593 39.0919C14.7593 38.9034 14.9758 38.742 15.2543 38.7381C15.5327 38.7343 15.7609 38.8842 15.7609 39.0765Z" fill="#191717"/>
<path d="M17.5398 38.7803C17.5746 38.9687 17.3812 39.1649 17.1028 39.211C16.8243 39.2571 16.5807 39.1456 16.5459 38.9611C16.5111 38.7765 16.7122 38.5766 16.9829 38.5266C17.2536 38.4766 17.505 38.5919 17.5398 38.7803Z" fill="#191717"/>
</svg>
