<svg width="24" height="23" viewBox="0 0 24 23" fill="none" xmlns="http://www.w3.org/2000/svg">
<path d="M23.3816 2.65218C16.3858 0.165212 8.78173 -0.0401994 1.66188 2.06546C1.37887 2.13319 1.11241 2.25724 0.878411 2.43023C0.64441 2.60321 0.447665 2.82157 0.299923 3.07228C0.152181 3.32298 0.0564718 3.60088 0.0185098 3.88939C-0.0194522 4.1779 0.00111142 4.47111 0.0789728 4.75149C0.468656 6.31535 1.03707 8.11215 1.71974 9.7412C1.73146 9.77929 1.74978 9.76098 1.74978 9.72289C1.65089 8.9589 2.23835 7.99422 3.39055 7.64335C8.92776 5.88111 14.8868 5.96001 20.3755 7.86823C20.5779 7.93747 20.7922 7.96548 21.0056 7.9506C21.2191 7.93572 21.4274 7.87825 21.6182 7.78158C21.8091 7.68491 21.9787 7.551 22.117 7.38775C22.2553 7.22449 22.3595 7.0352 22.4235 6.83103C23.1062 4.63356 23.3816 3.14149 23.4497 2.76792C23.4614 2.69833 23.3999 2.67196 23.3816 2.65292V2.65218ZM6.50289 7.4866C5.66419 7.66167 4.50466 7.93708 3.63447 8.22568C1.89481 8.82559 1.97538 10.9425 2.90198 11.6178C2.9701 11.2252 3.39055 10.6912 3.85934 10.511C5.59607 9.82836 7.46098 9.42037 9.3464 9.2519C8.38831 8.86295 7.45366 8.30552 6.51534 7.48587L6.50289 7.4866ZM20.352 11.7248C17.8527 10.5505 15.1433 9.88908 12.384 9.77975C9.62473 9.67042 6.87152 10.1153 4.28711 11.0882C3.45867 11.401 2.94007 12.4089 3.45867 13.3655C4.36464 15.0035 5.39279 16.5708 6.53438 18.0542C6.37031 17.4858 6.66037 16.4332 7.77375 16.0889C10.8531 15.1426 14.0841 15.544 16.2318 16.4134C16.8383 16.6573 17.6968 16.5094 18.178 15.7886C18.9987 14.5244 19.7452 13.2134 20.4136 11.8625C20.4436 11.8017 20.4136 11.7563 20.352 11.7248ZM15.3623 19.3133C14.4615 18.8585 13.6377 18.265 12.9209 17.5546C12.5891 17.2228 12.1006 16.746 11.5856 16.1776C10.41 16.1776 9.26876 16.2955 8.04844 16.6852C6.91528 17.0397 6.80907 18.3487 7.30496 19.0313C8.14366 20.0766 8.73185 20.6406 9.67016 21.6104C10.1674 22.0982 10.8352 22.3729 11.5317 22.3763C12.2283 22.3797 12.8987 22.1116 13.4007 21.6287C14.1332 20.8962 14.5837 20.4077 15.4114 19.4694C15.4605 19.4196 15.4414 19.3324 15.3616 19.3133H15.3623Z" fill="#F4B4B4"/>
</svg>
